# AST/ASF file generated using VICON BodyLanguage
# -----------------------------------------------
:version 1.10
:name VICON
:units
  mass 1.0
  length 0.45
  angle deg
:documentation
   .ast/.asf automatically generated from VICON data using
   VICON BodyBuilder and BodyLanguage model FoxedUp or BRILLIANT.MOD
:root
   order TX TY TZ RX RY RZ
   axis XYZ
   position 0 0 0  
   orientation 0 0 0 
:bonedata
  begin
     id 1 
     name lhipjoint
     direction 0.561145 -0.797705 0.220866 
     length 2.46425 
     axis 0 0 0  XYZ
  end
  begin
     id 2 
     name lfemur
     direction 0.34202 -0.939693 0  
     length 7.95556  
     axis 0 0 20  XYZ
    dof rx ry rz
    limits (-160.0 20.0)
           (-70.0 70.0)
           (-60.0 70.0)
  end
  begin
     id 3 
     name ltibia
     direction 0.34202 -0.939693 0   
     length 7.9832   
     axis 0 0 20   XYZ
    dof rx
    limits (-10.0 170.0)
  end
  begin
     id 4 
     name lfoot
     direction 0.0723927 -0.198897 0.977343   
     length 2.23085   
     axis -90 7.62852e-016 20   XYZ
    dof rx rz
    limits (-45.0 90.0)
           (-70.0 20.0)
  end
  begin
     id 5 
     name ltoes
     direction 1.53826e-011 -4.21988e-011 1   
     length 1.12127   
     axis -90 7.62852e-016 20   XYZ
    dof rx
    limits (-90.0 20.0)
  end
  begin
     id 6 
     name rhipjoint
     direction -0.610499 -0.763299 0.21134   
     length 2.57533  
     axis 0 0 0  XYZ 
  end
  begin
     id 7 
     name rfemur
     direction -0.34202 -0.939693 0   
     length 8.65257   
     axis 0 0 -20   XYZ
    dof rx ry rz
    limits (-160.0 20.0)
           (-70.0 70.0)
           (-70.0 60.0)
  end
  begin
     id 8 
     name rtibia
     direction -0.342021 -0.939692 0   
     length 7.37807   
     axis 0 0 -20   XYZ
    dof rx
    limits (-10.0 170.0)
 end
 begin
     id 9 
     name rfoot
     direction -0.0239304 -0.0543852 0.998233   
     length 1.87018  
     axis -90 -7.62852e-016 -20   XYZ
    dof rx rz
    limits (-45.0 90.0)
           (-20.0 70.0)
  end
  begin
     id 10 
     name rtoes
     direction -1.53584e-011 -4.2242e-011 1   
     length 0.951568   
     axis -90 -7.62852e-016 -20   XYZ
    dof rx
    limits (-90.0 20.0)
  end
  begin
     id 11 
     name lowerback
     direction 0.00322089 0.999033 0.0438587   
     length 2.07568   
     axis 0 0 0   XYZ
    dof rx ry rz
    limits (-20.0 45.0)
           (-30.0 30.0)
           (-30.0 30.0)
  end
  begin
     id 12 
     name upperback
     direction -0.00321932 0.999732 -0.0229403   
     length 2.06253   
     axis 0 0 0   XYZ
    dof rx ry rz
    limits (-20.0 45.0)
           (-30.0 30.0)
           (-30.0 30.0)
  end
  begin
     id 13 
     name thorax
     direction -0.00537537 0.998955 -0.0453918   
     length 2.06975   
     axis 0 0 0   XYZ
    dof rx ry rz
    limits (-20.0 45.0)
           (-30.0 30.0)
           (-30.0 30.0)
  end
  begin
     id 14 
     name lowerneck
     direction -0.00013604 0.994111 0.108363   
     length 1.50836   
     axis 0 0 0   XYZ
    dof rx ry rz
    limits (-20.0 45.0)
           (-30.0 30.0)
           (-30.0 30.0)
  end
  begin
     id 15 
     name upperneck
     direction 0.0397262 0.983859 -0.174482   
     length 1.53037   
     axis 0 0 0   XYZ
    dof rx ry rz
    limits (-20.0 45.0)
           (-30.0 30.0)
           (-30.0 30.0)
  end
  begin
     id 16
     name head
     direction 0.0109991 0.997082 -0.0755378  
     length 1.56928  
     axis 0 0 0   XYZ
    dof rx ry rz
    limits (-20.0 45.0)
           (-30.0 30.0)
           (-30.0 30.0)
  end
  begin
     id 17 
     name lclavicle
     direction 0.964749 0.254 -0.068874  
     length 3.26503  
     axis 0 0 0   XYZ
    dof ry rz
    limits (-20.0 10.0)
           (0.0 20.0)
  end
  begin
     id 18 
     name lhumerus
     direction 1 -4.48941e-011 -2.05079e-027   
     length 5.68236   
     axis 180 -30 -90   XYZ
    dof rx ry rz
    limits (-60.0 90.0)
           (-90.0 90.0)
           (-90.0 90.0)
  end
  begin
     id 19
     name lradius
     direction 1 -4.48956e-011 6.2882e-027   
     length 3.17112   
     axis 180 -30 -90   XYZ
    dof rx
    limits (-10.0 170.0)
  end
  begin
     id 20
     name lwrist
     direction 1 -4.49014e-011 1.73219e-026   
     length 1.58556   
     axis -1.04724e-014 90 90   XYZ
    dof ry
    limits (-180.0 0.0)
 end
  begin
     id 21 
     name lhand
     direction 1 -4.49312e-011 3.46438e-026   
     length 0.632691   
     axis -2.21057e-014 90 90   XYZ
    dof rx rz
    limits (-90.0 90.0)
           (-45.0 45.0)
  end
  begin
     id 22 
     name lfingers
     direction 1 -4.48894e-011 6.92876e-026   
     length 0.510091   
     axis -4.42114e-014 90 90   XYZ
    dof rx
    limits (0.0 90.0)
  end
  begin
     id 23
     name lthumb
     direction 0.707107 -6.34705e-011 0.707107   
     length 0.732392   
     axis -90 45 2.85299e-015   XYZ
    dof rx rz
    limits (-45.0 45.0)
           (-45.0 45.0)
  end
  begin
     id 24 
     name rclavicle
     direction -0.954374 0.280496 -0.102435   
     length 3.25419  
     axis 0 0 0   XYZ 
    dof ry rz
    limits (-10.0 20.0)
           (-20.0 0.0)
  end
  begin
     id 25 
     name rhumerus
     direction -1 -4.48994e-011 -1.07204e-017  
     length 5.8712   
     axis 180 30 90   XYZ
    dof rx ry rz
    limits (-90.0 60.0)
           (-90.0 90.0)
           (-90.0 90.0)
  end
  begin
     id 26 
     name rradius
     direction -1 -4.48972e-011 5.89292e-027   
     length 3.37589   
     axis 180 30 90   XYZ
    dof rx
    limits (-10.0 170.0)
  end
  begin
     id 27 
     name rwrist
     direction -1 -4.48942e-011 1.73219e-026   
     length 1.68794   
     axis -1.04724e-014 -90 -90   XYZ
    dof ry
    limits (-180.0 0.0)
  end
  begin
     id 28
     name rhand
     direction -1 -4.48514e-011 3.46438e-026   
     length 0.603257   
     axis -2.21057e-014 -90 -90   XYZ
    dof rx rz
    limits (-90.0 90.0)
           (-45.0 45.0)
  end
  begin
     id 29
     name rfingers
     direction -1 -4.50028e-011 6.92876e-026   
     length 0.486362   
     axis -4.42114e-014 -90 -90   XYZ
    dof rx
    limits (0.0 90.0)
  end
  begin
     id 30
     name rthumb
     direction -0.707107 -6.34926e-011 0.707107   
     length 0.698321   
     axis -90 -45 -2.85299e-015   XYZ
    dof rx rz
    limits (-45.0 45.0)
           (-45.0 45.0)
  end
:hierarchy
  begin
    root lhipjoint rhipjoint lowerback
    lhipjoint lfemur
    lfemur ltibia
    ltibia lfoot
    lfoot ltoes
    rhipjoint rfemur
    rfemur rtibia
    rtibia rfoot
    rfoot rtoes
    lowerback upperback
    upperback thorax
    thorax lowerneck lclavicle rclavicle
    lowerneck upperneck
    upperneck head
    lclavicle lhumerus
    lhumerus lradius
    lradius lwrist
    lwrist lhand lthumb
    lhand lfingers
    rclavicle rhumerus
    rhumerus rradius
    rradius rwrist
    rwrist rhand rthumb
    rhand rfingers
  end

#!OML:ASF I:\Segmentation\Patient Classification 1\Patient 1\Session 1\Patient1.ASF
:FULLY-SPECIFIED
:DEGREES
600
root 32.11 18.4892 -9.16096 -168.134 -43.2925 -181.041
lowerback -6.71239 0.536743 2.68013
upperback 3.13202 0.23568 2.30916
thorax 7.05912 0.150377 0.942076
lowerneck -15.1885 6.78357 5.84198
upperneck 21.1434 9.61439 -8.31296
head 9.92764 3.874 -2.60804
rclavicle 4.63168e-014 1.66979e-014
rhumerus -26.2586 -17.0244 -60.4593
rradius 25.5359
rwrist 26.0992
rhand -17.519 27.9343
rfingers 7.12502
rthumb 8.73453 -1.86497
lclavicle 4.63168e-014 1.66979e-014
lhumerus -29.411 -7.27049 88.0203
lradius 37.2741
lwrist 12.755
lhand -13.9186 35.0365
lfingers 7.12502
lthumb 12.2076 64.6603
rfemur -23.1229 5.56204 16.3628
rtibia 27.4267
rfoot -2.45023 7.64371
rtoes 30.9474
lfemur -24.5159 4.23858 -19.8061
ltibia 52.4457
lfoot -18.5725 14.5382
ltoes -11.9209
601
root 32.0982 18.4784 -9.21825 -167.974 -43.9532 -181.175
lowerback -6.72125 0.588438 2.75799
upperback 3.11893 0.301191 2.27318
thorax 7.05136 0.18757 0.868995
lowerneck -15.1664 6.75711 5.86036
upperneck 21.2113 9.58633 -8.35108
head 9.9485 3.85664 -2.62968
rclavicle -5.48646e-014 -3.10104e-014
rhumerus -25.6658 -17.5791 -60.4851
rradius 25.274
rwrist 26.6963
rhand -17.5806 27.8794
rfingers 7.12502
rthumb 8.67511 -1.92234
lclavicle -5.48646e-014 -3.10104e-014
lhumerus -29.4642 -7.2935 88.1137
lradius 37.7209
lwrist 12.9649
lhand -14.0278 35.0013
lfingers 7.12502
lthumb 12.1023 64.6313
rfemur -23.0574 5.44033 16.4323
rtibia 27.7579
rfoot -3.09986 7.81345
rtoes 30.9678
lfemur -25.1585 4.39775 -20.1597
ltibia 51.9175
lfoot -18.7921 13.8707
ltoes -12.6616
602
root 32.0837 18.4671 -9.27538 -167.838 -44.6351 -181.299
lowerback -6.74239 0.625479 2.84512
upperback 3.11444 0.343773 2.2504
thorax 7.06003 0.213442 0.801949
lowerneck -15.1494 6.74145 5.86928
upperneck 21.2808 9.57983 -8.40698
head 9.97317 3.84602 -2.65283
rclavicle 2.68359e-014 -7.15625e-015
rhumerus -25.0742 -17.9878 -60.5633
rradius 25.0892
rwrist 27.0928
rhand -17.6708 27.8496
rfingers 7.12502
rthumb 8.58804 -1.9557
lclavicle 2.68359e-014 -7.15625e-015
lhumerus -29.5049 -7.31507 88.2212
lradius 38.1124
lwrist 13.1569
lhand -14.129 34.9089
lfingers 7.12502
lthumb 12.0047 64.5446
rfemur -22.968 5.30086 16.5144
rtibia 28.1043
rfoot -3.74524 8.00688
rtoes 30.9916
lfemur -25.7556 4.52558 -20.507
ltibia 51.312
lfoot -18.9567 13.1477
ltoes -13.5401
603
root 32.0673 18.4562 -9.3321 -167.713 -45.3492 -181.424
lowerback -6.77468 0.645905 2.93237
upperback 3.11792 0.361868 2.24053
thorax 7.08356 0.226881 0.745538
lowerneck -15.1342 6.7312 5.8561
upperneck 21.3506 9.58858 -8.47296
head 9.99908 3.83914 -2.67372
rclavicle 2.78299e-015 -2.22639e-014
rhumerus -24.478 -18.2332 -60.6929
rradius 24.9895
rwrist 27.2805
rhand -17.7594 27.8128
rfingers 7.12502
rthumb 8.50253 -1.996
lclavicle 2.78299e-015 -2.22639e-014
lhumerus -29.5249 -7.32618 88.3536
lradius 38.4395
lwrist 13.3275
lhand -14.263 34.7552
lfingers 7.12502
lthumb 11.8755 64.3985
rfemur -22.8562 5.1326 16.6036
rtibia 28.4623
rfoot -4.39025 8.22198
rtoes 31.0258
lfemur -26.3183 4.60704 -20.8444
ltibia 50.6228
lfoot -19.0501 12.3845
ltoes -14.4426
604
root 32.0497 18.4464 -9.38791 -167.571 -46.0948 -181.564
lowerback -6.8184 0.65225 3.00655
upperback 3.12111 0.361349 2.2369
thorax 7.11309 0.230465 0.700763
lowerneck -15.1437 6.72144 5.84297
upperneck 21.4385 9.60078 -8.54894
head 10.037 3.83131 -2.69724
rclavicle 3.29983e-014 3.65764e-014
rhumerus -23.8824 -18.3197 -60.8658
rradius 24.9808
rwrist 27.2819
rhand -17.8124 27.7496
rfingers 7.12502
rthumb 8.45142 -2.06125
lclavicle 3.29983e-014 3.65764e-014
lhumerus -29.5195 -7.31555 88.5061
lradius 38.7031
lwrist 13.4733
lhand -14.4151 34.5882
lfingers 7.12502
lthumb 11.7288 64.2398
rfemur -22.7396 4.9323 16.6872
rtibia 28.8235
rfoot -5.03496 8.43918
rtoes 31.0813
lfemur -26.8705 4.63829 -21.1794
ltibia 49.8486
lfoot -19.0506 11.5932
ltoes -15.1644
605
root 32.0316 18.4376 -9.44259 -167.391 -46.8571 -181.727
lowerback -6.87163 0.649819 3.0628
upperback 3.11446 0.351174 2.23221
thorax 7.13729 0.228609 0.663661
lowerneck -15.1553 6.70463 5.82524
upperneck 21.5234 9.60232 -8.61698
head 10.0728 3.81918 -2.71874
rclavicle -4.81059e-014 2.8625e-014
rhumerus -23.2995 -18.2688 -61.0713
rradius 25.061
rwrist 27.138
rhand -17.8302 27.6688
rfingers 7.12502
rthumb 8.43424 -2.14282
lclavicle -4.81059e-014 2.8625e-014
lhumerus -29.4985 -7.28546 88.6665
lradius 38.917
lwrist 13.5978
lhand -14.5425 34.4923
lfingers 7.12502
lthumb 11.606 64.1509
rfemur -22.6335 4.71118 16.7572
rtibia 29.1745
rfoot -5.67239 8.63201
rtoes 31.1799
lfemur -27.4228 4.63915 -21.5237
ltibia 48.996
lfoot -18.9615 10.8059
ltoes -15.5813
606
root 32.0127 18.43 -9.4963 -167.177 -47.6222 -181.908
lowerback -6.93268 0.641301 3.1084
upperback 3.09408 0.334774 2.2233
thorax 7.15115 0.223382 0.627151
lowerneck -15.1497 6.68574 5.80191
upperneck 21.5782 9.59658 -8.66337
head 10.0923 3.80754 -2.73288
rclavicle 2.82274e-014 7.95139e-016
rhumerus -22.7399 -18.0874 -61.3112
rradius 25.2246
rwrist 26.861
rhand -17.8531 27.5813
rfingers 7.12502
rthumb 8.41206 -2.23117
lclavicle 2.82274e-014 7.95139e-016
lhumerus -29.4785 -7.24335 88.8205
lradius 39.0921
lwrist 13.6981
lhand -14.6275 34.5249
lfingers 7.12502
lthumb 11.524 64.1881
rfemur -22.5381 4.49542 16.8159
rtibia 29.4991
rfoot -6.30751 8.78451
rtoes 31.3216
lfemur -27.9742 4.62835 -21.8784
ltibia 48.0777
lfoot -18.8145 10.0633
ltoes -15.7495
607
root 31.9927 18.4232 -9.54951 -166.954 -48.3822 -182.084
lowerback -6.99824 0.629989 3.15521
upperback 3.0651 0.314855 2.21287
thorax 7.15837 0.216499 0.587821
lowerneck -15.1618 6.67617 5.79708
upperneck 21.6246 9.59683 -8.69887
head 10.1131 3.80173 -2.74471
rclavicle -3.26007e-014 1.51076e-014
rhumerus -22.2114 -17.7694 -61.5909
rradius 25.4722
rwrist 26.455
rhand -17.9408 27.4545
rfingers 7.12502
rthumb 8.32749 -2.36136
lclavicle -3.26007e-014 1.51076e-014
lhumerus -29.4649 -7.20187 88.9614
lradius 39.225
lwrist 13.7688
lhand -14.6901 34.6454
lfingers 7.12502
lthumb 11.4636 64.3119
rfemur -22.4368 4.31404 16.878
rtibia 29.7811
rfoot -6.96108 8.87747
rtoes 31.4674
lfemur -28.509 4.62858 -22.2324
ltibia 47.1101
lfoot -18.6483 9.37441
ltoes -15.7894
608
root 31.9716 18.4168 -9.60257 -166.762 -49.1289 -182.228
lowerback -7.06055 0.621456 3.21223
upperback 3.04041 0.296811 2.20792
thorax 7.16836 0.210742 0.548747
lowerneck -15.225 6.6733 5.80649
upperneck 21.6896 9.60239 -8.7291
head 10.1511 3.79848 -2.75507
rclavicle -2.18663e-014 4.6118e-014
rhumerus -21.7056 -17.3191 -61.9075
rradius 25.8006
rwrist 25.9409
rhand -18.125 27.2595
rfingers 7.12502
rthumb 8.14966 -2.56331
lclavicle -2.18663e-014 4.6118e-014
lhumerus -29.4464 -7.16596 89.0927
lradius 39.3041
lwrist 13.8077
lhand -14.7677 34.7388
lfingers 7.12502
lthumb 11.3888 64.4095
rfemur -22.3049 4.18232 16.9636
rtibia 30.0078
rfoot -7.65734 8.89288
rtoes 31.5429
lfemur -29.0045 4.66652 -22.571
ltibia 46.1084
lfoot -18.5156 8.7196
ltoes -15.7375
609
root 31.9496 18.4109 -9.65541 -166.621 -49.8535 -182.338
lowerback -7.10661 0.618294 3.27344
upperback 3.0307 0.284323 2.21287
thorax 7.18506 0.207494 0.518452
lowerneck -15.3392 6.66572 5.80979
upperneck 21.7701 9.60253 -8.75721
head 10.2037 3.79071 -2.76335
rclavicle -3.69739e-014 4.77083e-015
rhumerus -21.2036 -16.7465 -62.2499
rradius 26.1948
rwrist 25.3312
rhand -18.3902 27.0351
rfingers 7.12502
rthumb 7.89375 -2.79754
lclavicle -3.69739e-014 4.77083e-015
lhumerus -29.4066 -7.12593 89.2236
lradius 39.3143
lwrist 13.8067
lhand -14.8909 34.6999
lfingers 7.12502
lthumb 11.27 64.3771
rfemur -22.121 4.093 17.0764
rtibia 30.1696
rfoot -8.39253 8.84165
rtoes 31.517
lfemur -29.4478 4.75048 -22.893
ltibia 45.086
lfoot -18.4756 8.09314
ltoes -15.5411
610
root 31.9266 18.4062 -9.70771 -166.522 -50.5489 -182.428
lowerback -7.12864 0.623016 3.3255
upperback 3.03296 0.282875 2.22668
thorax 7.20071 0.208847 0.503905
lowerneck -15.4668 6.63555 5.79079
upperneck 21.8375 9.57636 -8.78888
head 10.251 3.76863 -2.77275
rclavicle 2.74323e-014 -2.06736e-014
rhumerus -20.7093 -16.0731 -62.594
rradius 26.6404
rwrist 24.6376
rhand -18.7053 26.8437
rfingers 7.12502
rthumb 7.58965 -3.00012
lclavicle 2.74323e-014 -2.06736e-014
lhumerus -29.3445 -7.08685 89.3663
lradius 39.2502
lwrist 13.7549
lhand -15.0562 34.5136
lfingers 7.12502
lthumb 11.1106 64.1995
rfemur -21.8782 4.02116 17.2052
rtibia 30.2594
rfoot -9.11622 8.75504
rtoes 31.4628
lfemur -29.8421 4.88202 -23.2153
ltibia 44.0554
lfoot -18.5498 7.54815
ltoes -15.2333
611
root 31.9023 18.4029 -9.75934 -166.448 -51.2135 -182.506
lowerback -7.13342 0.640624 3.36809
upperback 3.03295 0.300078 2.24557
thorax 7.20418 0.218582 0.502246
lowerneck -15.5553 6.57107 5.7516
upperneck 21.8603 9.50698 -8.82855
head 10.2705 3.72656 -2.78875
rclavicle -1.43125e-014 -2.22639e-014
rhumerus -20.2497 -15.3498 -62.9125
rradius 27.1276
rwrist 23.8864
rhand -19.0461 26.7222
rfingers 7.12502
rthumb 7.26067 -3.13326
lclavicle -1.43125e-014 -2.22639e-014
lhumerus -29.2826 -7.07078 89.5287
lradius 39.1286
lwrist 13.6459
lhand -15.2309 34.2622
lfingers 7.12502
lthumb 10.942 63.957
rfemur -21.5922 3.9414 17.3457
rtibia 30.2746
rfoot -9.7646 8.65821
rtoes 31.4872
lfemur -30.2095 5.07738 -23.551
ltibia 43.0246
lfoot -18.7163 7.16564
ltoes -14.9457
612
root 31.8769 18.4005 -9.81057 -166.386 -51.8544 -182.571
lowerback -7.13053 0.670607 3.40792
upperback 3.02052 0.335392 2.26229
thorax 7.19023 0.236981 0.501968
lowerneck -15.5782 6.48183 5.71532
upperneck 21.8285 9.40166 -8.87491
head 10.2553 3.67112 -2.814
rclavicle -7.71285e-014 -1.59028e-015
rhumerus -19.8412 -14.6251 -63.2047
rradius 27.6487
rwrist 23.0948
rhand -19.3994 26.6661
rfingers 7.12502
rthumb 6.91958 -3.20077
lclavicle -7.71285e-014 -1.59028e-015
lhumerus -29.2425 -7.08189 89.7004
lradius 38.9739
lwrist 13.4756
lhand -15.3759 34.0445
lfingers 7.12502
lthumb 10.8022 63.7468
rfemur -21.2851 3.84773 17.4993
rtibia 30.2201
rfoot -10.3133 8.56251
rtoes 31.64
lfemur -30.5757 5.34773 -23.9012
ltibia 41.9955
lfoot -18.9286 6.9797
ltoes -14.7293
613
root 31.8511 18.3984 -9.86184 -166.327 -52.4824 -182.628
lowerback -7.12908 0.706908 3.45241
upperback 3.00112 0.380361 2.26521
thorax 7.16999 0.2608 0.485792
lowerneck -15.5628 6.38648 5.69535
upperneck 21.7626 9.27882 -8.9053
head 10.2188 3.61341 -2.83924
rclavicle -1.35174e-014 2.54444e-014
rhumerus -19.4741 -13.9336 -63.4973
rradius 28.2005
rwrist 22.2836
rhand -19.7576 26.6327
rfingers 7.12502
rthumb 6.5738 -3.24528
lclavicle -1.35174e-014 2.54444e-014
lhumerus -29.2171 -7.10679 89.8526
lradius 38.8034
lwrist 13.2612
lhand -15.4536 33.9089
lfingers 7.12502
lthumb 10.7272 63.6151
rfemur -20.9633 3.76185 17.6598
rtibia 30.1058
rfoot -10.8058 8.46649
rtoes 31.8643
lfemur -30.9495 5.6812 -24.2635
ltibia 40.9642
lfoot -19.1126 6.9698
ltoes -14.6125
614
root 31.8248 18.3968 -9.91343 -166.269 -53.1002 -182.679
lowerback -7.14525 0.74574 3.50884
upperback 2.99046 0.428107 2.24755
thorax 7.16963 0.287515 0.442107
lowerneck -15.5765 6.30403 5.69511
upperneck 21.708 9.16005 -8.89387
head 10.1909 3.56349 -2.85148
rclavicle -6.48038e-014 4.92986e-014
rhumerus -19.1167 -13.3186 -63.8151
rradius 28.7778
rwrist 21.5036
rhand -20.0895 26.6058
rfingers 7.12502
rthumb 6.25337 -3.28189
lclavicle -6.48038e-014 4.92986e-014
lhumerus -29.1783 -7.12863 89.9589
lradius 38.6241
lwrist 13.0438
lhand -15.4416 33.8317
lfingers 7.12502
lthumb 10.7388 63.5372
rfemur -20.6246 3.71449 17.8214
rtibia 29.9447
rfoot -11.3152 8.36493
rtoes 32.0477
lfemur -31.3253 6.06253 -24.6356
ltibia 39.9213
lfoot -19.1931 7.08887
ltoes -14.7317
